REM DIRINDEX 1\2,1\3,1\4,1\5\6,1\5\7,1\8
REM DIRNAME folder01,folder02,folder03,folder04,folder05,folder06,folder07,folder08
TITLE ""
FILE "077 Åy077ÅzUnit5 (0865 recession_0876 conviction).mp3" MP3
  TRACK 01 AUDIO
    TITLE "0:"
    INDEX 01 00:00:00
  TRACK 02 AUDIO
    TITLE "8:cjc115_3035"
    INDEX 01 00:00:07
  TRACK 03 AUDIO
    TITLE "0:"
    INDEX 01 00:01:46
  TRACK 04 AUDIO
    TITLE "2:cjc115_3036"
    INDEX 01 00:02:24
  TRACK 05 AUDIO
    TITLE "0:"
    INDEX 01 00:03:43
  TRACK 06 AUDIO
    TITLE "3:cjc115_3037"
    INDEX 01 00:03:57
  TRACK 07 AUDIO
    TITLE "0:"
    INDEX 01 00:04:58
  TRACK 08 AUDIO
    TITLE "4:cjc115_3038"
    INDEX 01 00:04:66
  TRACK 09 AUDIO
    TITLE "0:"
    INDEX 01 00:09:24
  TRACK 10 AUDIO
    TITLE "2:cjc115_3039"
    INDEX 01 00:10:37
  TRACK 11 AUDIO
    TITLE "0:"
    INDEX 01 00:11:50
  TRACK 12 AUDIO
    TITLE "3:cjc115_3040"
    INDEX 01 00:11:58
  TRACK 13 AUDIO
    TITLE "0:"
    INDEX 01 00:13:10
  TRACK 14 AUDIO
    TITLE "4:cjc115_3041"
    INDEX 01 00:13:12
  TRACK 15 AUDIO
    TITLE "0:"
    INDEX 01 00:17:27
  TRACK 16 AUDIO
    TITLE "2:cjc115_3042"
    INDEX 01 00:18:37
  TRACK 17 AUDIO
    TITLE "0:"
    INDEX 01 00:19:52
  TRACK 18 AUDIO
    TITLE "3:cjc115_3043"
    INDEX 01 00:19:62
  TRACK 19 AUDIO
    TITLE "0:"
    INDEX 01 00:22:25
  TRACK 20 AUDIO
    TITLE "4:cjc115_3044"
    INDEX 01 00:22:36
  TRACK 21 AUDIO
    TITLE "0:"
    INDEX 01 00:25:31
  TRACK 22 AUDIO
    TITLE "2:cjc115_3045"
    INDEX 01 00:26:42
  TRACK 23 AUDIO
    TITLE "0:"
    INDEX 01 00:27:49
  TRACK 24 AUDIO
    TITLE "3:cjc115_3046"
    INDEX 01 00:27:57
  TRACK 25 AUDIO
    TITLE "0:"
    INDEX 01 00:28:64
  TRACK 26 AUDIO
    TITLE "4:cjc115_3047"
    INDEX 01 00:28:70
  TRACK 27 AUDIO
    TITLE "0:"
    INDEX 01 00:32:03
  TRACK 28 AUDIO
    TITLE "2:cjc115_3048"
    INDEX 01 00:33:11
  TRACK 29 AUDIO
    TITLE "0:"
    INDEX 01 00:34:22
  TRACK 30 AUDIO
    TITLE "3:cjc115_3049"
    INDEX 01 00:34:32
  TRACK 31 AUDIO
    TITLE "0:"
    INDEX 01 00:35:72
  TRACK 32 AUDIO
    TITLE "4:cjc115_3050"
    INDEX 01 00:36:01
  TRACK 33 AUDIO
    TITLE "0:"
    INDEX 01 00:38:67
  TRACK 34 AUDIO
    TITLE "2:cjc115_3051"
    INDEX 01 00:40:11
  TRACK 35 AUDIO
    TITLE "0:"
    INDEX 01 00:41:10
  TRACK 36 AUDIO
    TITLE "3:cjc115_3052"
    INDEX 01 00:41:14
  TRACK 37 AUDIO
    TITLE "0:"
    INDEX 01 00:42:25
  TRACK 38 AUDIO
    TITLE "4:cjc115_3053"
    INDEX 01 00:42:33
  TRACK 39 AUDIO
    TITLE "0:"
    INDEX 01 00:45:51
  TRACK 40 AUDIO
    TITLE "2:cjc115_3054"
    INDEX 01 00:46:58
  TRACK 41 AUDIO
    TITLE "0:"
    INDEX 01 00:47:70
  TRACK 42 AUDIO
    TITLE "3:cjc115_3055"
    INDEX 01 00:48:00
  TRACK 43 AUDIO
    TITLE "0:"
    INDEX 01 00:49:69
  TRACK 44 AUDIO
    TITLE "4:cjc115_3056"
    INDEX 01 00:50:01
  TRACK 45 AUDIO
    TITLE "0:"
    INDEX 01 00:52:73
  TRACK 46 AUDIO
    TITLE "2:cjc115_3057"
    INDEX 01 00:54:07
  TRACK 47 AUDIO
    TITLE "0:"
    INDEX 01 00:55:18
  TRACK 48 AUDIO
    TITLE "3:cjc115_3058"
    INDEX 01 00:55:26
  TRACK 49 AUDIO
    TITLE "0:"
    INDEX 01 00:57:33
  TRACK 50 AUDIO
    TITLE "4:cjc115_3059"
    INDEX 01 00:57:45
  TRACK 51 AUDIO
    TITLE "0:"
    INDEX 01 01:01:21
  TRACK 52 AUDIO
    TITLE "2:cjc115_3060"
    INDEX 01 01:02:30
  TRACK 53 AUDIO
    TITLE "0:"
    INDEX 01 01:03:35
  TRACK 54 AUDIO
    TITLE "3:cjc115_3061"
    INDEX 01 01:03:43
  TRACK 55 AUDIO
    TITLE "0:"
    INDEX 01 01:04:37
  TRACK 56 AUDIO
    TITLE "4:cjc115_3062"
    INDEX 01 01:04:48
  TRACK 57 AUDIO
    TITLE "0:"
    INDEX 01 01:08:72
  TRACK 58 AUDIO
    TITLE "2:cjc115_3063"
    INDEX 01 01:10:06
  TRACK 59 AUDIO
    TITLE "0:"
    INDEX 01 01:11:21
  TRACK 60 AUDIO
    TITLE "3:cjc115_3064"
    INDEX 01 01:11:31
  TRACK 61 AUDIO
    TITLE "0:"
    INDEX 01 01:12:58
  TRACK 62 AUDIO
    TITLE "4:cjc115_3065"
    INDEX 01 01:12:66
  TRACK 63 AUDIO
    TITLE "0:"
    INDEX 01 01:16:01
  TRACK 64 AUDIO
    TITLE "2:cjc115_3066"
    INDEX 01 01:17:12
  TRACK 65 AUDIO
    TITLE "0:"
    INDEX 01 01:18:25
  TRACK 66 AUDIO
    TITLE "3:cjc115_3067"
    INDEX 01 01:18:35
  TRACK 67 AUDIO
    TITLE "0:"
    INDEX 01 01:19:40
  TRACK 68 AUDIO
    TITLE "4:cjc115_3068"
    INDEX 01 01:19:48
  TRACK 69 AUDIO
    TITLE "0:"
    INDEX 01 01:24:67
  TRACK 70 AUDIO
    TITLE "2:cjc115_3069"
    INDEX 01 01:25:74
  TRACK 71 AUDIO
    TITLE "0:"
    INDEX 01 01:27:20
  TRACK 72 AUDIO
    TITLE "3:cjc115_3070"
    INDEX 01 01:27:28
  TRACK 73 AUDIO
    TITLE "0:"
    INDEX 01 01:28:74
  TRACK 74 AUDIO
    TITLE "4:cjc115_3071"
    INDEX 01 01:29:05
  TRACK 75 AUDIO
    TITLE "0:"
    INDEX 01 01:33:54
